<svg width="14" height="12" viewBox="0 0 14 12" fill="none" xmlns="http://www.w3.org/2000/svg">
<path d="M12.2175 3.9374L9.22913 0.949069C8.99463 0.714684 8.67663 0.583052 8.34508 0.58313C8.01353 0.583208 7.69559 0.71499 7.46121 0.949486C7.22682 1.18398 7.09519 1.50198 7.09527 1.83353C7.09535 2.16508 7.22713 2.48302 7.46163 2.7174L9.49413 4.7499H2.16663C1.83511 4.7499 1.51716 4.8816 1.28274 5.11602C1.04832 5.35044 0.916626 5.66838 0.916626 5.9999C0.916626 6.33142 1.04832 6.64937 1.28274 6.88379C1.51716 7.11821 1.83511 7.2499 2.16663 7.2499H9.49413L7.46163 9.2824C7.22713 9.51679 7.09535 9.83473 7.09527 10.1663C7.09519 10.4978 7.22682 10.8158 7.46121 11.0503C7.69559 11.2848 8.01353 11.4166 8.34508 11.4167C8.67663 11.4168 8.99463 11.2851 9.22913 11.0507L12.2175 8.0624C12.7635 7.51487 13.0701 6.77316 13.0701 5.9999C13.0701 5.22664 12.7635 4.48493 12.2175 3.9374Z" fill="white"/>
</svg>
