<svg width="228" height="25" viewBox="0 0 228 25" fill="none" xmlns="http://www.w3.org/2000/svg">
<path d="M5.41195 0.994995H0.224274V24.3395H5.41195V0.994995Z" fill="white"/>
<path d="M8.78146 0.992625V6.1803L33.4229 6.1803V0.992625L8.78146 0.992625Z" fill="white"/>
<path d="M23.6984 0.994995H18.5107V24.3395H23.6984V0.994995Z" fill="white"/>
<path d="M121.778 21.7457C123.431 23.3993 125.701 24.3395 128.036 24.3395H143.501V19.1519H124.372V0.994995H119.184V15.4881C119.184 17.8225 120.124 20.0921 121.778 21.7457Z" fill="white"/>
<path d="M218.723 0.994995H202.933V24.3395H208.12V6.18267H222.386V24.3395H227.574V9.84646C227.574 7.51201 226.634 5.2424 224.98 3.58883C223.327 1.93526 221.089 0.994995 218.723 0.994995Z" fill="white"/>
<path d="M149.11 21.7457C150.764 23.3993 153.034 24.3395 155.368 24.3395H170.834V19.1519H151.704V0.994995H146.517V15.4881C146.517 17.8225 147.457 20.0921 149.11 21.7457Z" fill="white"/>
<path d="M173.849 0.994995V15.4881C173.849 17.8225 174.789 20.0921 176.443 21.7457C178.097 23.3993 180.366 24.3395 182.701 24.3395H193.303H198.491V19.1519H179.134L198.491 11.3703V0.994995H173.849ZM179.037 13.8669V6.18267H198.166L179.037 13.8669Z" fill="white"/>
<path d="M89.7116 0.994995V15.4881C89.7116 17.8225 90.6518 20.0921 92.3054 21.7457C93.959 23.3993 96.2286 24.3395 98.563 24.3395H109.165H114.353V19.1519H94.9965L114.353 11.3703V0.994995H89.7116ZM94.8993 13.8669V6.18267H114.029L94.8993 13.8669Z" fill="white"/>
<path d="M79.3363 0.994995V23.0102L67.7937 3.2646C66.9831 1.87041 65.4916 1.02742 63.9029 1.02742C62.2818 1.02742 60.8227 1.87041 60.0122 3.2646L48.4696 23.0102V0.994995H43.2819V17.8549C43.2819 21.4215 46.1676 24.3395 49.7665 24.3395C52.101 24.3395 54.2409 23.1075 55.3757 21.0648L63.9029 6.18267L72.4301 21.0648C73.5974 23.075 75.7373 24.3395 78.0393 24.3395C81.6059 24.3395 84.5239 21.4539 84.5239 17.8549V0.994995H79.3363Z" fill="white"/>
</svg>
