<svg width="261" height="36" viewBox="0 0 261 36" fill="none" xmlns="http://www.w3.org/2000/svg">
<g clip-path="url(#clip0_1_415)">
<path d="M62.0117 28.4608V30.3758H45.1967V30.3601H45.1798V5.58197H50.4466V28.4608H62.0117Z" fill="#C67F44"/>
<path d="M81.2997 5.58197V21.1107H81.257C81.0449 26.2371 76.8198 30.3466 71.6417 30.3466C66.4636 30.3466 62.2385 26.2382 62.0263 21.1107H62.0229V21.0343C62.0196 20.9266 62.0061 20.8199 62.0061 20.711H62.0229V5.58197H66.9552V12.1542C66.9541 12.1789 66.9519 12.2025 66.9519 12.2261V23.7553C66.9519 26.346 69.0521 28.4451 71.6428 28.4451C74.2335 28.4451 76.3337 26.3449 76.3337 23.7553V20.7122H76.3696V5.58197H81.2997Z" fill="#C67F44"/>
<path d="M102.137 30.3465H96.3322L91.2596 19.3954L85.829 30.3465H83.6906L89.3368 18.9621L83.154 5.6156H88.9574L94.1646 16.8563L99.739 5.6156H101.877L96.0875 17.2896L102.137 30.3465Z" fill="#C67F44"/>
<path d="M139.17 14.5665V24.0662L139.165 30.3511L136.712 30.3477V13.1701C136.724 12.9871 136.724 12.8041 136.712 12.6212C136.645 11.4549 136.157 10.3066 135.245 9.41529C135.035 9.20875 134.808 9.02579 134.571 8.86302C132.608 7.51378 129.878 7.69675 128.121 9.41529L125.791 11.6917V24.0662L125.786 30.3511L123.333 30.3477V13.3093C123.36 13.0196 123.36 12.7312 123.333 12.4416C123.233 11.3292 122.751 10.2448 121.878 9.39172C121.813 9.32662 121.746 9.26488 121.681 9.20875C119.699 7.47 116.656 7.53174 114.755 9.39172L113.069 11.0418V30.3511H107.802V30.3241L107.811 20.3675L107.82 9.8497C108.927 8.20524 110.542 6.91212 112.44 6.18361C112.647 6.10392 112.857 6.02983 113.069 5.96809C113.998 5.67624 114.987 5.52246 116.015 5.52246C116.331 5.52246 116.644 5.53705 116.951 5.56624C119.172 5.77278 121.173 6.70221 122.713 8.11656C122.914 7.93359 123.117 7.76185 123.333 7.59684C124.077 7.02437 124.907 6.54843 125.807 6.20606C126.917 5.77839 128.121 5.54154 129.382 5.54154C129.695 5.54154 130.011 5.5595 130.318 5.58532C131.871 5.73012 133.317 6.22851 134.575 6.99967C135.372 7.48684 136.092 8.08289 136.712 8.77098C138.131 10.3335 139.037 12.3495 139.17 14.5665Z" fill="#C67F44"/>
<path d="M166.016 17.9362C166.016 24.7644 160.46 30.3207 153.631 30.3207C146.803 30.3207 141.247 24.7644 141.247 17.9362C141.247 11.108 146.803 5.55164 153.631 5.55164C160.461 5.55164 166.016 11.108 166.016 17.9362ZM161.038 10.5456C158.554 8.06155 154.526 8.06155 152.042 10.5456L146.226 16.3613C143.742 18.8454 143.742 22.873 146.226 25.357C148.71 27.8411 152.738 27.8411 155.222 25.357L161.038 19.5414C163.522 17.0573 163.522 13.0297 161.038 10.5456Z" fill="#C67F44"/>
<path d="M187.211 19.8669L187.227 19.8512H170.945C170.634 21.7965 171.222 23.8585 172.722 25.3582C175.206 27.8434 179.235 27.8434 181.72 25.3582L184.281 22.7955H191.519C189.626 27.2159 185.233 30.3196 180.129 30.3196C173.3 30.3196 167.745 24.7632 167.745 17.9351C167.743 11.108 173.3 5.55164 180.128 5.55164C186.956 5.55164 192.513 11.1069 192.513 17.9362C192.513 18.5929 192.461 19.2372 192.361 19.8669H187.211ZM189.317 16.0212C189.617 14.0849 189.027 12.0363 187.535 10.5445C185.05 8.06043 181.023 8.06043 178.537 10.5445L173.061 16.0212H189.317Z" fill="#C67F44"/>
<path d="M212.308 17.971C213.525 19.2877 214.276 21.0421 214.276 22.9728C214.276 27.0441 210.963 30.3578 206.891 30.3578L195.196 30.3757V5.6156H207.493C211.284 5.92429 214.275 9.10097 214.275 12.9702C214.276 14.8998 213.525 16.6543 212.308 17.971ZM200.487 16.7834H207.862C210.347 16.7834 212.361 14.7685 212.361 12.2844C212.361 9.80029 210.346 7.7854 207.862 7.7854H200.487V16.7834ZM207.861 18.4851H200.486V27.4842H207.861C210.346 27.4842 212.36 25.4693 212.36 22.9852C212.361 20.5 210.346 18.4851 207.861 18.4851Z" fill="#C67F44"/>
<path d="M235.883 19.8669L235.898 19.8512H219.617C219.306 21.7965 219.894 23.8585 221.393 25.3582C223.879 27.8434 227.906 27.8434 230.391 25.3582L232.954 22.7955H240.191C238.297 27.2159 233.906 30.3196 228.801 30.3196C221.972 30.3196 216.416 24.7632 216.416 17.9351C216.415 11.108 221.972 5.55164 228.8 5.55164C235.628 5.55164 241.184 11.1069 241.184 17.9362C241.184 18.5929 241.133 19.2372 241.033 19.8669H235.883ZM237.988 16.0212C238.288 14.0849 237.699 12.0363 236.207 10.5445C233.722 8.06043 229.694 8.06043 227.209 10.5445L221.732 16.0212H237.988Z" fill="#C67F44"/>
<path d="M260.7 28.4608V30.3758H243.885V30.3601H243.868V5.58197H249.135V28.4608H260.7Z" fill="#C67F44"/>
</g>
<path d="M30.4384 13.0058L27.2085 9.76545L25.8866 12.6305L25.8817 12.6431L28.3408 15.1101C31.1605 17.9364 31.846 22.1071 30.3998 25.5876C30.3915 25.6075 30.3838 25.6274 30.3751 25.6473C30.3267 25.7615 30.2763 25.8746 30.2234 25.987C30.1601 26.1207 30.0946 26.2533 30.0247 26.3846C29.9885 26.4534 29.9499 26.5207 29.9116 26.5888C29.819 26.7525 29.7251 26.9159 29.6221 27.0751C29.6221 27.0776 29.6197 27.0776 29.6197 27.0776C29.4732 27.3031 29.319 27.5213 29.1548 27.7367C29.1548 27.7391 29.1523 27.7419 29.1471 27.7443C29.0535 27.8686 28.9526 27.9929 28.8489 28.1144L28.3485 28.6544C28.2904 28.7127 28.2323 28.771 28.1717 28.8269C28.1161 28.8827 28.0579 28.9358 27.9998 28.9868C27.957 29.0248 27.9163 29.0629 27.8735 29.1009C27.8206 29.1467 27.7674 29.192 27.7141 29.2378C27.6839 29.2633 27.4967 29.4151 27.4337 29.4633C27.244 29.6131 27.0495 29.7548 26.8498 29.8815C26.799 29.9147 26.7057 29.9754 26.7057 29.9754C26.1041 30.3584 25.4697 30.6677 24.8152 30.9009L24.8204 30.9086C24.3555 31.0758 23.8753 31.2077 23.385 31.2992C22.7986 31.4109 22.197 31.4692 21.588 31.4692C19.5941 31.4692 17.6959 30.8607 16.1012 29.7324C15.6916 29.4434 15.3026 29.1215 14.9386 28.7665L14.941 28.7588L15.8457 26.799L19.1995 19.535L23.9104 29.0709C24.5803 28.8555 25.2146 28.5434 25.801 28.1454L21.31 19.0602L23.8829 13.4872L24.7877 11.5246L28.0934 4.36455H21.7498C21.358 4.03745 20.9488 3.73827 20.5292 3.46947C18.4768 2.14639 16.1238 1.4845 13.7708 1.4845C12.1659 1.4845 10.5663 1.79135 9.05988 2.40228C8.6959 2.55204 8.33714 2.71681 7.98568 2.90183C7.25006 3.28479 6.54507 3.74875 5.88043 4.29124C5.54951 4.56249 5.22833 4.85155 4.91758 5.16329C0.0299231 10.0667 0.0299231 18.0181 4.91758 22.9243L8.15515 26.1723L9.48441 23.2972L7.01518 20.82C5.21058 19.0096 4.21746 16.6036 4.21746 14.0426C4.21746 11.4844 5.21058 9.07807 7.01518 7.268C7.09104 7.1919 7.1669 7.11859 7.24276 7.04737C7.61161 6.70002 8.00099 6.38827 8.41021 6.10935L8.41265 6.11458C9.00142 5.71137 9.62326 5.38183 10.2701 5.12559C10.2701 5.12559 10.3631 5.08788 10.4041 5.07252C10.5482 5.01667 10.6947 4.96605 10.8415 4.92032C10.9149 4.89483 11.3875 4.76043 11.4404 4.74786C11.6123 4.70492 11.7842 4.66408 11.9585 4.63127C12.1078 4.60334 12.2543 4.57785 12.4032 4.55761C12.4791 4.54748 12.5549 4.53736 12.628 4.52723C13.0045 4.48429 13.3838 4.46125 13.7704 4.46125C15.7671 4.46125 17.6702 5.07218 19.2674 6.20325C19.6742 6.49475 20.0636 6.81697 20.4275 7.17444L19.5305 9.11927L16.01 16.7404L11.1704 6.95102C10.5134 7.1919 9.89154 7.52913 9.32295 7.95258L13.9023 17.2173L11.4936 22.4328L10.5889 24.3926L7.26294 31.5907H13.6319L13.6344 31.5858C14.021 31.9077 14.4229 32.202 14.8373 32.4655C16.8869 33.7865 19.2375 34.4456 21.5877 34.4456C23.1901 34.4456 24.7922 34.1388 26.2986 33.5254C26.6424 33.3861 26.9834 33.2287 27.3171 33.0562C27.987 32.7089 28.6338 32.298 29.248 31.8214C29.66 31.4996 30.0592 31.147 30.4384 30.7668C35.3289 25.863 35.3289 17.9092 30.4384 13.0058Z" fill="#C67F44"/>
<defs>
<clipPath id="clip0_1_415">
<rect width="215.52" height="24.7938" fill="white" transform="translate(45.1798 5.55164)"/>
</clipPath>
</defs>
</svg>
